<svg id="Capa_1" enable-background="new 0 0 512 512" height="512" viewBox="0 0 512 512" width="512" xmlns="http://www.w3.org/2000/svg"><g><g><path d="m17 19v118.992l9.299 55.363-9.299 62.645v118.008l119.523 118.992h118.535l18.598-237-18.598-237-59.268 9.258-59.267-9.258z" fill="#fcf2b6"/><path d="m256 14.402v483.196l59.004-9.438 59.004 9.438h118.992v-121.3l-9.258-60.149 9.258-60.149v-120.298l-118.992-121.3z" fill="#fad17f"/><path d="m256 143.469h112.531v112.531h-112.531z" fill="#07485e"/><path d="m368.531 19h124.469v124.469h-124.469z" fill="#07485e"/><path d="m143.469 19h112.531v124.469h-112.531z" fill="#0b799d"/><path d="m143.469 256h112.531v112.531h-112.531z" fill="#0b799d"/><path d="m256 368.531h112.531v129.066h-112.531z" fill="#07485e"/><path d="m368.531 256h124.469v112.531h-124.469z" fill="#07485e"/><g fill="#0b799d"><path d="m12 368.531h131.469v131.469h-131.469z"/><path d="m17 143.469h126.469v112.531h-126.469z"/></g></g><g><path d="m256 512h-256v-512h256l10 15-10 15h-226v452h226l10 15z" fill="#464141"/></g><g><path d="m512 512h-256v-30h226v-452h-226v-30h256z" fill="#2d2d2d"/></g></g></svg>