<svg id="Layer_1" enable-background="new 0 0 256 256" height="512" viewBox="0 0 256 256" width="512" xmlns="http://www.w3.org/2000/svg"><path d="m137.533 4c8.741 0 16.305 6.644 16.835 15.368.022.365.034.732.034 1.102v1.766c10.424 0 18.637 8.883 17.821 19.275l-3.045 38.778h-57.421-.027-57.421l-3.045-38.778c-.816-10.392 7.397-19.275 17.821-19.275v-1.766c0-.37.011-.738.033-1.102.532-8.724 8.095-15.368 16.836-15.368z" fill="#fcc24c"/><path d="m156.904 22.432c4.51 3.798 7.264 9.836 6.776 16.468l-3.045 41.39h8.543l3.045-38.778c.749-9.542-6.121-17.792-15.319-19.08z" fill="#dea42e"/><path d="m66.584 22.432c-4.51 3.798-7.264 9.836-6.776 16.468l3.045 41.39h-8.543l-3.045-38.778c-.749-9.542 6.121-17.792 15.319-19.08z" fill="#fce06a"/><path d="m173.733 166.706-14.296-.018-25.573-.033c.024-.411-.001-.818 0-1.235v-40.293h-44.157v40.236c0 .417-.023.824 0 1.235l-25.627-.033-14.296-.018c-15.444-.02-27.98 12.484-28 27.928l-.073 57.525h179.876l.073-57.294c.021-15.444-12.483-27.98-27.927-28z" fill="#7bac51"/><path d="m89.707 125.128h44.157l-.1 75.243-22.078 51.629-21.979-51.629z" fill="#ff9f70"/><path d="m111.686 254h-.001c-.801 0-1.525-.479-1.839-1.217l-21.979-51.629c-.105-.248-.16-.514-.16-.783v-75.244c0-1.104.896-2 2-2h44.157c.531 0 1.04.211 1.415.587.375.375.585.885.585 1.416l-.1 75.244c0 .27-.055.536-.161.784l-22.078 51.628c-.315.736-1.039 1.214-1.839 1.214zm-19.978-54.037 19.983 46.94 20.074-46.944.097-72.833h-40.154z" fill="#690589"/><path d="m173.733 166.706-9.81-.012c15.444.02 27.948 12.556 27.928 27.999l-.073 57.307h9.809l.073-57.294c.021-15.444-12.483-27.98-27.927-28z" fill="#5d8e33"/><path d="m49.784 166.548 9.81.012c-15.444-.02-27.98 12.484-27.999 27.928l-.074 57.512h-9.81l.073-57.525c.02-15.444 12.556-27.947 28-27.927z" fill="#99ca6f"/><path d="m201.587 254h-179.876c-.531 0-1.04-.211-1.415-.587-.375-.375-.585-.885-.585-1.416l.073-57.524c.01-8.004 3.137-15.524 8.803-21.177 5.657-5.643 13.171-8.749 21.16-8.749h.039l37.921.049v-39.469c0-1.104.896-2 2-2h44.157c1.104 0 2 .896 2 2v39.53l37.871.049c16.522.021 29.947 13.48 29.925 30.002l-.073 57.294c-.001 1.104-.896 1.998-2 1.998zm-177.873-4h175.876l.071-55.297c.009-6.935-2.683-13.458-7.581-18.369-4.897-4.91-11.414-7.62-18.349-7.628l-39.869-.051c-.55 0-1.076-.228-1.453-.628s-.573-.938-.541-1.488c.013-.216.006-.431.002-.647-.003-.158-.006-.316-.005-.476v-38.288h-40.157l-.006 38.682c-.004.226-.01.45.002.676.032.55-.165 1.088-.543 1.488s-.931.646-1.456.626l-39.923-.051c-.011 0-.023 0-.034 0-6.923 0-13.433 2.691-18.335 7.581-4.91 4.898-7.619 11.415-7.628 18.35z" fill="#690589"/><path d="m30.692 208.371c-1.104 0-2-.896-2-2v-12c0-1.104.896-2 2-2s2 .896 2 2v12c0 1.105-.895 2-2 2z" fill="#690589"/><path d="m169.179 82.29h-114.869c-1.044 0-1.912-.803-1.994-1.843l-3.044-38.778c-.433-5.508 1.47-10.993 5.221-15.049 3.295-3.564 7.801-5.792 12.594-6.281.002-.367.015-.731.037-1.093.587-9.67 8.859-17.246 18.83-17.246h51.58c9.971 0 18.243 7.576 18.831 17.247.022.361.035.725.037 1.092 4.792.488 9.299 2.717 12.594 6.281 3.75 4.056 5.653 9.542 5.221 15.049l-3.044 38.778c-.082 1.04-.95 1.843-1.994 1.843zm-113.02-4h111.171l2.9-36.935c.35-4.463-1.131-8.732-4.17-12.02s-7.179-5.098-11.657-5.098c-1.104 0-2-.896-2-2v-1.766c0-.329-.01-.656-.03-.979-.461-7.567-6.979-13.492-14.839-13.492h-51.58c-7.86 0-14.378 5.925-14.839 13.49-.02.325-.03.652-.03.981v1.766c0 1.104-.896 2-2 2-4.477 0-8.617 1.811-11.656 5.098s-4.521 7.557-4.17 12.02z" fill="#690589"/><path d="m64.052 72.619h-3.404c-8.8 0-15.933 7.134-15.933 15.933 0 8.8 7.133 15.933 15.933 15.933h3.404z" fill="#ffbd8e"/><path d="m162.813 72.619h-3.404v31.866h3.404c8.799 0 15.933-7.133 15.933-15.933 0-8.799-7.134-15.933-15.933-15.933z" fill="#e18152"/><path d="m111.73 153.615c-26.332 0-47.678-21.623-47.678-48.297v-33.437c0-26.674 21.346-48.297 47.678-48.297 26.332 0 47.678 21.623 47.678 48.297v33.437c.001 26.674-21.346 48.297-47.678 48.297z" fill="#ff9f70"/><path d="m111.73 23.584c-1.833 0-3.639.115-5.418.319 23.779 2.726 42.26 23.161 42.26 47.978v33.437c0 24.817-18.481 45.252-42.26 47.978 1.779.204 3.585.319 5.418.319 26.332 0 47.678-21.623 47.678-48.297v-33.437c.001-26.674-21.346-48.297-47.678-48.297z" fill="#e18152"/><path d="m111.73 23.584c1.833 0 3.639.115 5.418.319-23.779 2.726-42.26 23.161-42.26 47.978v33.437c0 24.817 18.481 45.252 42.26 47.978-1.779.204-3.585.319-5.418.319-26.332 0-47.678-21.623-47.678-48.297v-33.437c0-26.674 21.346-48.297 47.678-48.297z" fill="#ffbd8e"/><g fill="#690589"><path d="m111.73 155.615c-27.393 0-49.678-22.563-49.678-50.297v-33.437c0-27.734 22.286-50.297 49.678-50.297s49.678 22.563 49.678 50.297v33.437c.001 27.734-22.285 50.297-49.678 50.297zm0-130.031c-25.187 0-45.678 20.769-45.678 46.297v33.437c0 25.528 20.491 46.297 45.678 46.297s45.678-20.769 45.678-46.297v-33.437c.001-25.528-20.491-46.297-45.678-46.297z"/><path d="m64.052 106.485h-3.404c-9.888 0-17.933-8.045-17.933-17.933s8.045-17.933 17.933-17.933h3.404c1.104 0 2 .896 2 2v31.866c0 1.105-.895 2-2 2zm-3.404-31.866c-7.683 0-13.933 6.25-13.933 13.933s6.25 13.933 13.933 13.933h1.404v-27.866z"/><path d="m162.813 106.485h-3.404c-1.104 0-2-.896-2-2v-31.866c0-1.104.896-2 2-2h3.404c9.888 0 17.933 8.045 17.933 17.933s-8.045 17.933-17.933 17.933zm-1.404-4h1.404c7.683 0 13.933-6.25 13.933-13.933s-6.25-13.933-13.933-13.933h-1.404z"/><path d="m149.955 81.413c-.615 0-1.222-.283-1.614-.817-.654-.89-.461-2.142.429-2.795l9.511-6.98c.891-.653 2.142-.461 2.795.429.654.89.461 2.142-.429 2.795l-9.511 6.98c-.356.262-.771.388-1.181.388z"/><path d="m73.528 81.413c-.414 0-.831-.128-1.189-.393l-9.422-6.98c-.888-.657-1.074-1.91-.417-2.797.657-.888 1.911-1.073 2.797-.417l9.422 6.98c.888.657 1.074 1.91.417 2.797-.392.53-.996.81-1.608.81z"/></g><path d="m89.707 155.92v44.451l22.079 51.629-39.764-48.801 9.63-14.442-17.787-.193 7.434-21.998z" fill="#f4efed"/><path d="m133.764 155.92v44.451l-22.078 51.629 39.764-48.801-9.63-14.442 17.787-.193-7.434-21.998z" fill="#f4efed"/><path d="m111.787 254c-.584 0-1.159-.255-1.551-.737l-39.764-48.801c-.555-.68-.601-1.643-.114-2.373l7.583-11.373-14.098-.153c-.64-.007-1.239-.32-1.609-.843s-.468-1.191-.263-1.797l7.434-21.998c.155-.46.473-.848.893-1.091l18.409-10.646c.62-.358 1.382-.357 2.001-.001.619.357 1 1.018 1 1.732v44.042l21.917 51.252c.392.917.049 1.981-.804 2.498-.322.195-.68.289-1.034.289zm-37.282-50.919 29.854 36.638-16.49-38.561c-.106-.249-.161-.516-.161-.787v-40.984l-14.755 8.533-6.31 18.674 15.032.163c.733.008 1.404.417 1.747 1.066s.303 1.433-.104 2.043z" fill="#690589"/><path d="m111.685 254c-.354 0-.712-.094-1.034-.289-.853-.516-1.196-1.581-.804-2.498l21.917-51.252v-44.041c0-.715.381-1.375 1-1.732.62-.356 1.382-.357 2.001.001l18.409 10.646c.42.243.738.631.893 1.091l7.434 21.998c.205.606.107 1.275-.263 1.797s-.969.835-1.609.843l-14.099.153 7.583 11.373c.487.73.441 1.692-.114 2.373l-39.764 48.801c-.39.481-.966.736-1.55.736zm24.079-94.613v40.984c0 .271-.055.538-.161.787l-16.49 38.561 29.854-36.638-8.811-13.214c-.407-.61-.447-1.395-.104-2.043s1.013-1.058 1.747-1.066l15.032-.163-6.311-18.674zm-2 40.984h.01z" fill="#690589"/><path d="m139.274 97.875h-10.903c-5.898 0-10.679-4.781-10.679-10.679v-7.784c0-2.949 2.391-5.339 5.339-5.339h21.581c2.949 0 5.339 2.391 5.339 5.339v7.784c.002 5.898-4.779 10.679-10.677 10.679z" fill="#ff4397"/><path d="m117.693 81.413h-11.903c-1.104 0-2-.896-2-2s.896-2 2-2h11.903c1.104 0 2 .896 2 2s-.896 2-2 2z" fill="#690589"/><path d="m95.111 97.875h-10.903c-5.898 0-10.679-4.781-10.679-10.679v-7.784c0-2.949 2.391-5.339 5.339-5.339h21.581c2.949 0 5.339 2.391 5.339 5.339v7.784c.001 5.898-4.78 10.679-10.677 10.679z" fill="#ff4397"/><path d="m144.614 74.073h-6.407c2.949 0 5.339 2.391 5.339 5.339v7.784c0 5.898-4.781 10.679-10.679 10.679h6.407c5.898 0 10.679-4.781 10.679-10.679v-7.784c0-2.948-2.39-5.339-5.339-5.339z" fill="#e12579"/><path d="m78.869 74.073h6.407c-2.949 0-5.339 2.391-5.339 5.339v7.784c0 5.898 4.781 10.679 10.679 10.679h-6.407c-5.898 0-10.679-4.781-10.679-10.679v-7.784c-.001-2.948 2.39-5.339 5.339-5.339z" fill="#ff61b5"/><path d="m95.111 99.875h-10.903c-6.991 0-12.679-5.688-12.679-12.679v-7.784c0-4.047 3.292-7.339 7.339-7.339h21.582c4.047 0 7.339 3.292 7.339 7.339v7.784c.001 6.992-5.687 12.679-12.678 12.679zm-16.242-23.802c-1.841 0-3.339 1.498-3.339 3.339v7.784c0 4.786 3.893 8.679 8.679 8.679h10.903c4.786 0 8.679-3.893 8.679-8.679v-7.784c0-1.841-1.498-3.339-3.339-3.339z" fill="#690589"/><path d="m139.274 99.875h-10.903c-6.991 0-12.679-5.688-12.679-12.679v-7.784c0-4.047 3.292-7.339 7.34-7.339h21.581c4.047 0 7.339 3.292 7.339 7.339v7.784c.001 6.992-5.686 12.679-12.678 12.679zm-16.241-23.802c-1.842 0-3.34 1.498-3.34 3.339v7.784c0 4.786 3.893 8.679 8.679 8.679h10.903c4.786 0 8.679-3.893 8.679-8.679v-7.784c0-1.841-1.498-3.339-3.339-3.339z" fill="#690589"/><path d="m71.68 41.121s14.249-3.025 26.125 5.819c15.349 11.43 48.658 22.767 64.333 6.648 0 0-7.656-37.513-44.445-37.513s-46.013 25.046-46.013 25.046z" fill="#fcc24c"/><path d="m140.281 63.604c-3.811 0-7.502-.437-10.793-1.043-11.517-2.121-24.114-7.493-32.876-14.018-11.024-8.208-24.382-5.496-24.516-5.467-1.078.23-2.142-.46-2.372-1.542-.229-1.08.461-2.142 1.542-2.372.617-.131 15.276-3.105 27.735 6.172 6.506 4.845 18.122 10.881 31.212 13.292 9.376 1.728 22.277 2.013 30.493-6.434.769-.792 2.036-.81 2.828-.039.792.77.81 2.036.039 2.828-6.439 6.622-15.135 8.623-23.292 8.623z" fill="#690589"/><path d="m200.886 240.943-20.645 11.057 3.943-23.192-16.701-16.28 23.081-3.353 10.322-20.915 10.322 20.915 23.081 3.353-16.702 16.28 3.943 23.192z" fill="#fcc24c"/><path d="m221.53 254c-.324 0-.648-.078-.944-.237l-19.7-10.551-19.7 10.551c-.672.361-1.492.306-2.112-.14s-.932-1.206-.804-1.958l3.767-22.157-15.95-15.548c-.545-.531-.741-1.326-.506-2.05s.861-1.251 1.615-1.361l22.04-3.203 9.857-19.972c.337-.683 1.032-1.115 1.793-1.115s1.457.432 1.793 1.115l9.857 19.972 22.04 3.203c.753.109 1.379.637 1.615 1.361.235.724.039 1.519-.506 2.05l-15.95 15.548 3.767 22.157c.128.752-.184 1.512-.804 1.958-.347.25-.757.377-1.168.377zm-20.644-15.057c.325 0 .649.079.944.237l17.043 9.129-3.258-19.165c-.11-.647.105-1.309.576-1.767l13.799-13.452-19.07-2.771c-.651-.094-1.214-.503-1.506-1.094l-8.529-17.281-8.529 17.281c-.292.59-.854 1-1.506 1.094l-19.07 2.771 13.799 13.452c.471.458.686 1.12.576 1.767l-3.258 19.165 17.043-9.129c.296-.158.621-.237.946-.237z" fill="#690589"/></svg>