<svg height="480pt" viewBox="0 0 480 480" width="480pt" xmlns="http://www.w3.org/2000/svg"><path d="m224 8h224c13.253906 0 24 10.746094 24 24v416c0 13.253906-10.746094 24-24 24h-224c-13.253906 0-24-10.746094-24-24v-416c0-13.253906 10.746094-24 24-24zm0 0" fill="#a3603e"/><path d="m200 440.121094v7.878906c0 13.253906 10.746094 24 24 24h224c13.253906 0 24-10.746094 24-24v-403.199219c-55.6875 152.703125-149.285156 288.738281-272 395.320313zm0 0" fill="#94502d"/><path d="m400 120c0 35.347656-28.652344 64-64 64s-64-28.652344-64-64 28.652344-64 64-64 64 28.652344 64 64zm0 0" fill="#fdb62f"/><path d="m440 328c0 57.4375-46.5625 104-104 104s-104-46.5625-104-104 46.5625-104 104-104 104 46.5625 104 104zm0 0" fill="#fdb62f"/><path d="m232.945312 314.777344c74.574219-46.289063 150.253907-33.417969 203.855469-11.929688-12.039062-48.542968-56.960937-81.613281-106.886719-78.691406-49.925781 2.921875-90.683593 41.003906-96.976562 90.621094zm0 0" fill="#ffa230"/><path d="m399.425781 111.878906c-4.0625-31.03125-29.96875-54.574218-61.246093-55.65625-31.277344-1.082031-58.75 20.613282-64.949219 51.289063 47.136719-21.304688 91.746093-11.984375 126.195312 4.367187zm0 0" fill="#ffa230"/><path d="m368 120c0 17.671875-14.328125 32-32 32s-32-14.328125-32-32 14.328125-32 32-32 32 14.328125 32 32zm0 0" fill="#fd6d2f"/><path d="m408 328c0 39.765625-32.234375 72-72 72s-72-32.234375-72-72 32.234375-72 72-72 72 32.234375 72 72zm0 0" fill="#fd6d2f"/><path d="m432 32h16v16h-16zm0 0" fill="#693721"/><path d="m432 432h16v16h-16zm0 0" fill="#693721"/><path d="m192 328-16-40h-80l-16 40h-56c-8.835938 0-16 7.164062-16 16v112c0 8.835938 7.164062 16 16 16h224c8.835938 0 16-7.164062 16-16v-112c0-8.835938-7.164062-16-16-16zm0 0" fill="#4398d1"/><path d="m257.113281 330.871094c-51.679687 91.386718-160.65625 126.832031-237.320312 140.496094 1.367187.398437 2.78125.609374 4.207031.632812h224c8.835938 0 16-7.164062 16-16v-112c0-5.242188-2.574219-10.152344-6.886719-13.128906zm0 0" fill="#3e8cc7"/><path d="m192 400c0 30.929688-25.070312 56-56 56s-56-25.070312-56-56 25.070312-56 56-56 56 25.070312 56 56zm0 0" fill="#e3584b"/><path d="m40 352h16v16h-16zm0 0" fill="#87ced9"/><path d="m208 352h32v16h-32zm0 0" fill="#87ced9"/><path d="m248 184v-40c0-57.4375-46.5625-104-104-104s-104 46.5625-104 104v40h-32v-40c0-75.109375 60.890625-136 136-136s136 60.890625 136 136v40zm0 0" fill="#4398d1"/><path d="m88 136v96c-26.507812 0-48-21.492188-48-48s21.492188-48 48-48zm0 0" fill="#87ced9"/><path d="m104 112c8.835938 0 16 7.164062 16 16v112c0 8.835938-7.164062 16-16 16s-16-7.164062-16-16v-112c0-8.835938 7.164062-16 16-16zm0 0" fill="#e3584b"/><path d="m184 112c8.835938 0 16 7.164062 16 16v112c0 8.835938-7.164062 16-16 16s-16-7.164062-16-16v-112c0-8.835938 7.164062-16 16-16zm0 0" fill="#e3584b"/><path d="m40 184c0 26.507812 21.492188 48 48 48v-38.800781c-16.832031-2.742188-32.882812-9.039063-47.089844-18.472657-.597656 3.054688-.90625 6.160157-.910156 9.273438zm0 0" fill="#71c4d1"/><path d="m200 232v-96c26.507812 0 48 21.492188 48 48s-21.492188 48-48 48zm0 0" fill="#87ced9"/><path d="m248 184c0 26.507812-21.492188 48-48 48v-38.800781c16.832031-2.742188 32.882812-9.039063 47.089844-18.472657.597656 3.054688.90625 6.160157.910156 9.273438zm0 0" fill="#71c4d1"/><path d="m448 0h-208v16h208c8.835938 0 16 7.164062 16 16v416c0 8.835938-7.164062 16-16 16h-160v16h160c17.671875 0 32-14.328125 32-32v-416c0-17.671875-14.328125-32-32-32zm0 0"/><path d="m336 48c-20.664062.007812-40.328125 8.882812-54 24.375l12 10.59375c19.503906-22.113281 52.8125-25.3125 76.171875-7.320312 23.355469 17.996093 28.761719 51.019531 12.359375 75.519531s-48.996094 32.085937-74.53125 17.34375l-8 13.847656c26.214844 15.128906 59.089844 12.25 82.273438-7.207031 23.183593-19.457032 31.726562-51.332032 21.375-79.773438-10.351563-28.441406-37.382813-47.375-67.648438-47.378906zm0 0"/><path d="m336 160c22.089844 0 40-17.910156 40-40s-17.910156-40-40-40-40 17.910156-40 40c.027344 22.082031 17.917969 39.972656 40 40zm0-64c13.253906 0 24 10.746094 24 24s-10.746094 24-24 24-24-10.746094-24-24 10.746094-24 24-24zm0 0"/><path d="m336 216c-51.96875-.179688-97.175781 35.554688-109 86.160156l15.566406 3.679688c9.46875-39.882813 43.214844-69.351563 84.007813-73.367188 40.792969-4.011718 79.632812 18.320313 96.691406 55.589844 17.058594 37.273438 8.566406 81.265625-21.136719 109.511719-29.699218 28.25-74.0625 34.523437-110.433594 15.617187l-7.390624 14.183594c41.234374 21.4375 91.425781 15.175781 126.136718-15.730469 34.710938-30.90625 46.726563-80.035156 30.199219-123.472656s-58.164063-72.15625-104.640625-72.171875zm0 0"/><path d="m336 392c-15.742188.011719-30.9375-5.792969-42.664062-16.296875l-10.671876 11.921875c26.894532 24.046875 66.554688 27.117188 96.828126 7.5 30.277343-19.617188 43.675781-57.074219 32.714843-91.441406-10.960937-34.371094-43.570312-57.15625-79.613281-55.625s-66.601562 26.996094-74.609375 62.171875l15.601563 3.539062c7.445312-32.652343 38.804687-54.042969 71.921874-49.054687 33.117188 4.984375 56.789063 34.65625 54.296876 68.050781-2.496094 33.398437-30.316407 59.226563-63.804688 59.234375zm0 0"/><path d="m432 32h16v16h-16zm0 0"/><path d="m224 432h16v16h-16zm0 0"/><path d="m432 432h16v16h-16zm0 0"/><path d="m24 480h224c13.253906 0 24-10.746094 24-24v-112c0-13.253906-10.746094-24-24-24h-50.585938l-13.980468-34.976562c-1.21875-3.035157-4.160156-5.027344-7.433594-5.023438h-80c-3.273438-.003906-6.214844 1.988281-7.433594 5.023438l-13.980468 34.976562h-50.585938c-13.253906 0-24 10.746094-24 24v112c0 13.253906 10.746094 24 24 24zm-8-136c0-4.417969 3.582031-8 8-8h56c3.273438.003906 6.214844-1.988281 7.433594-5.023438l13.980468-34.976562h69.171876l13.980468 34.976562c1.21875 3.035157 4.160156 5.027344 7.433594 5.023438h56c4.417969 0 8 3.582031 8 8v112c0 4.417969-3.582031 8-8 8h-224c-4.417969 0-8-3.582031-8-8zm0 0"/><path d="m136 456c30.929688 0 56-25.070312 56-56s-25.070312-56-56-56-56 25.070312-56 56c.035156 30.914062 25.085938 55.964844 56 56zm0-96c22.089844 0 40 17.910156 40 40s-17.910156 40-40 40-40-17.910156-40-40c.027344-22.082031 17.917969-39.972656 40-40zm0 0"/><path d="m40 352h16v16h-16zm0 0"/><path d="m208 352h32v16h-32zm0 0"/><path d="m8 192h24.640625c3.566406 24.527344 22.832031 43.792969 47.359375 47.359375v.640625c0 13.253906 10.746094 24 24 24s24-10.746094 24-24v-112c0-13.253906-10.746094-24-24-24s-24 10.746094-24 24v.640625c-12.164062 1.746094-23.410156 7.453125-32 16.238281v-.878906c0-53.019531 42.980469-96 96-96s96 42.980469 96 96v.878906c-8.589844-8.785156-19.835938-14.492187-32-16.238281v-.640625c0-13.253906-10.746094-24-24-24s-24 10.746094-24 24v112c0 13.253906 10.746094 24 24 24s24-10.746094 24-24v-.640625c24.527344-3.566406 43.792969-22.832031 47.359375-47.359375h24.640625c4.417969 0 8-3.582031 8-8v-40c0-79.527344-64.472656-144-144-144s-144 64.472656-144 144v40c0 4.417969 3.582031 8 8 8zm88 40v-104c0-4.417969 3.582031-8 8-8s8 3.582031 8 8v112c0 4.417969-3.582031 8-8 8s-8-3.582031-8-8zm96-96v104c0 4.417969-3.582031 8-8 8s-8-3.582031-8-8v-112c0-4.417969 3.582031-8 8-8s8 3.582031 8 8zm16 87.199219v-78.398438c18.644531 3.785157 32.039062 20.175781 32.039062 39.199219s-13.394531 35.414062-32.039062 39.199219zm-128-78.398438v78.398438c-18.644531-3.785157-32.039062-20.175781-32.039062-39.199219s13.394531-35.414062 32.039062-39.199219zm-64-.800781c0-70.691406 57.308594-128 128-128s128 57.308594 128 128v32h-16v-32c0-61.855469-50.144531-112-112-112s-112 50.144531-112 112v32h-16zm0 0"/></svg>