<svg height="512" viewBox="0 0 256 256" width="512" xmlns="http://www.w3.org/2000/svg"><path d="m223.264 72.315-.376-4.315a7.066 7.066 0 0 1 6.181-7.6c-2.448-13.705-10.057-29.378-24.114-34.357-12.9-4.567-16.959-12.546-18.2-16.4a2.386 2.386 0 0 0 -4.581 1.323c.969 3.882 4.091 14.813 13.868 19.359 13.312 6.19 22.793 24.6 22.822 39.515s-9.365 33.362-22.653 39.6c-9.759 4.585-12.85 15.528-13.8 19.414a2.386 2.386 0 0 0 4.586 1.305c1.226-3.86 5.256-11.855 18.135-16.474 14.235-5.1 21.8-21.181 24.077-35.03a7.073 7.073 0 0 1 -5.945-6.34z" fill="#b77035"/><path d="m133.7 36.2-5.962-.417a1.79 1.79 0 0 0 -1.513.657l-2.691 3.322a1.778 1.778 0 0 0 -.144 2.032l5.094 8.52a2.371 2.371 0 0 1 -2.29 3.572l-14.814-1.566a6.849 6.849 0 0 1 -4.582-2.475c-2.088-2.551-5.251-6.987-6.236-11.464-1.514-6.877 5.044-16.493 15.3-17.255 9.921-.736 18.409 4.191 19.7 13.142a1.729 1.729 0 0 1 -1.862 1.932z" fill="#f5c84c"/><path d="m144.877 5.754c-8.537-3.02-33.715-9.454-49.245 12.593-9.457 13.424-1.547 28.059 2.718 33.017a2.626 2.626 0 0 0 3.832.141l3.368-3.262a27.624 27.624 0 0 1 -4.993-9.864c-1.514-6.877 5.044-16.493 15.3-17.255 6.31-.468 12.031 1.362 15.7 5.054l14.267-16.908a2.211 2.211 0 0 0 -.947-3.516z" fill="#fc657e"/><path d="m24.783 166.23a26.621 26.621 0 0 1 1.368-11.295c-7.313.478-15.359 3.711-20.626 13.821-9.159 17.58 6.1 29.407-1.124 46.02a1.2 1.2 0 0 0 1.516 1.61c5.135-1.953 15.689-7.783 15.616-22.7-.058-11.821-1.075-22.298 3.25-27.456z" fill="#818182"/><path d="m192.7 163.634c-5.716-8.051-9.538-24.731-15.777-28.5-2.067-1.249-15.165-1.224-24.516-.539a49.466 49.466 0 0 1 -3.01 10.695c-1.481 3.5-2.63 6.233-3.527 8.384 22.2-10.458 30.225.774 32.917 5.924 1.964 3.757 2.386 7.863 1.265 10.939a3.747 3.747 0 0 0 1.5 4.354l11 7.388a2.991 2.991 0 0 0 4.585-1.846c1.329-6.108.29-10.144-4.437-16.799z" fill="#965622"/><path d="m87.841 246.734c-1.455-6.273-9.5-6.456-12.36-8.6-4.91-3.683-15.47-18.415-7.013-28.365 6-7.059 12.814-11.73 16.254-19.207a97.63 97.63 0 0 1 -9.793-1.577 1.845 1.845 0 0 0 -2.084 1.061c-3.361 7.769-10.351 12.483-16.482 19.7-8.457 9.95 2.1 24.682 7.013 28.365 2.857 2.143 10.905 2.326 12.359 8.6.481 2.076-.445 6.793-2.8 6.793h12.1c2.365-.004 3.287-4.695 2.806-6.77z" fill="#965622"/><path d="m180.055 170.538a3.747 3.747 0 0 0 1.5 4.354l11 7.388a2.991 2.991 0 0 0 4.585-1.846 16.211 16.211 0 0 0 -1.454-12.009l-15.058-2.343a11.2 11.2 0 0 1 -.573 4.456z" fill="#5b5d60"/><path d="m75.735 246.707c.481 2.076-.445 6.793-2.8 6.793h12.1c2.357 0 3.284-4.691 2.8-6.766a7.485 7.485 0 0 0 -3.51-4.723h-12.06a7.466 7.466 0 0 1 3.47 4.696z" fill="#5b5d60"/><path d="m166.652 171.6c-1.537-2.507-9.251-5.42-16.48-7.776a7.286 7.286 0 0 1 -4.473-9.731c.921-2.209 2.125-5.077 3.7-8.8a44.311 44.311 0 0 0 2.167-6.687 31.791 31.791 0 0 0 -13.211-17.844 1.352 1.352 0 0 0 -1.875.466l-1.414 2.386a1.35 1.35 0 0 1 -2.288.06c-3.764-5.717-11.2-9.12-15.287-10.639a10.9 10.9 0 0 1 -1.335 5.679c-10.352 18.6-55.024 16.166-55.024 16.166-13.732-2.4-27.857 4.34-33.841 17.22a27.166 27.166 0 0 0 -1.311 20.07c8.109 26.211 20.474 17.428 15.332 39.7-3.391 14.686 5.632 18.588 10.647 39.406.341 1.424 1.141 2.224 3.219 2.224h17.755c2.357 0 3.283-4.717 2.8-6.793-1.454-6.273-9.5-6.456-12.359-8.6-4.91-3.683-15.47-18.415-7.013-28.365 6.131-7.213 13.121-11.927 16.482-19.7a1.845 1.845 0 0 1 2.084-1.061c12.773 2.7 25.968 3.132 38.29-1.19l6.551-2.348a37.188 37.188 0 0 0 10.232-5.604 3.211 3.211 0 0 1 2.527-.649l.147.026a25.821 25.821 0 0 0 7.656.169c17.478-2.139 17.123 8.1 17.142 13.788.013 4.048-1.436 7.716-3.739 9.835a3.58 3.58 0 0 0 -.647 4.351l6.084 11.087a2.859 2.859 0 0 0 4.7.442c3.815-4.6 4.709-8.481 3.628-16.2-1.305-9.332 2.79-25.159-.846-31.088z" fill="#b77035"/><path d="m156.84 197.691a11.622 11.622 0 0 1 -3.109 5.318 3.58 3.58 0 0 0 -.646 4.35l6.084 11.087a2.862 2.862 0 0 0 4.719.424 15.508 15.508 0 0 0 4.036-10.95z" fill="#818182"/><path d="m51.959 251.277c.341 1.423 1.141 2.223 3.219 2.223h17.755c2.357 0 3.283-4.717 2.8-6.793a7.466 7.466 0 0 0 -3.47-4.7h-23.125a80.226 80.226 0 0 1 2.821 9.27z" fill="#818182"/><g fill="#f9d0b4"><path d="m76.678 81.727a6.351 6.351 0 0 1 -.078-11.379c4.121-2 8.757-3.733 12.317-3.635 8.257.227 31.4 6.192 41.152 2.176 9.119-3.756 10.57-6.089 13.831-1.667a2.454 2.454 0 0 0 1.89 1.056l1.786.049a2.737 2.737 0 0 1 2.615 2.727c.107 4.482-.752 13.033-8.885 12.809-11.009-.3-15.464-7.78-41.854-.153a33.916 33.916 0 0 1 -22.774-1.983z"/><path d="m230.911 78.724a7.078 7.078 0 0 1 -7.647-6.409l-.376-4.315a7.071 7.071 0 0 1 6.422-7.63 7.077 7.077 0 0 1 7.647 6.409l.377 4.319a7.072 7.072 0 0 1 -6.423 7.626z"/><path d="m214.69 63.37c-10.472-.255-24.9 3.012-28.9 3.974a5.454 5.454 0 0 1 -2.171.06c-9.7-1.595-24.5.675-33.725 2.47a2.868 2.868 0 0 1 .29 1.18c.107 4.482-.752 13.033-8.885 12.809-10.387-.285-14.949-6.953-37.6-1.3l12.607 25.678a11.747 11.747 0 0 1 1.184 4.789c4.088 1.519 11.523 4.922 15.287 10.639a1.35 1.35 0 0 0 2.288-.06l1.414-2.386a1.352 1.352 0 0 1 1.875-.466 31.793 31.793 0 0 1 13.217 17.864c3.127-12.713 1.923-27.614 1.371-32.68a8.738 8.738 0 0 1 .287-3.42 55.091 55.091 0 0 0 1.83-8.425 4.055 4.055 0 0 1 3.425-3.456c12.2-1.931 23.358-7.523 26.909-9.432a5.19 5.19 0 0 1 2.517-.623c4.227.04 17.33-.128 23.624-3.555a21.984 21.984 0 0 1 7.029-2.335 41.324 41.324 0 0 0 .3-4.861 43.283 43.283 0 0 0 -.56-6.6 30.213 30.213 0 0 1 -3.613.136z"/><path d="m140.61 46.078-3.753-2.905a4.158 4.158 0 0 1 -1.6-2.905l-.407-4.41a1.752 1.752 0 0 1 -1.159.34l-5.962-.417a1.79 1.79 0 0 0 -1.513.657l-2.691 3.322a1.778 1.778 0 0 0 -.144 2.032l5.094 8.52a2.371 2.371 0 0 1 -2.29 3.572l-14.814-1.566a6.823 6.823 0 0 1 -1.644-.392l.361 1.642a9.644 9.644 0 0 0 7.491 7.369l9.38 1.917a18.914 18.914 0 0 0 7.843-.055l1.019-.223a3.479 3.479 0 0 0 2.518-4.618l-.341-.91a7.948 7.948 0 0 1 -.4-4.095l.474-2.854a1.038 1.038 0 0 1 .372-.637l2.177-1.756a1.037 1.037 0 0 0 -.011-1.628z"/><path d="m134.806 62.8a18.914 18.914 0 0 1 -7.843.055l-9.38-1.917a9.626 9.626 0 0 1 -4.173-2.008l.838 11.018-.044.015c6.205.539 12.054.495 15.86-1.073 2.464-1.015 4.356-1.918 5.887-2.621l-.9-3.523z"/></g><path d="m224.372 151.6h-2.266v-2.27a3.071 3.071 0 1 0 -6.142 0v2.27h-2.264a3.071 3.071 0 0 0 0 6.142h2.265v2.258a3.071 3.071 0 0 0 6.142 0v-2.266h2.266a3.071 3.071 0 1 0 0-6.142z" fill="#70d6f9"/><path d="m70.857 49.366a10.8 10.8 0 0 1 -8.657-8.478.2.2 0 0 0 -.384 0 10.794 10.794 0 0 1 -8.654 8.478.19.19 0 0 0 0 .376 10.8 10.8 0 0 1 8.654 8.479.2.2 0 0 0 .384 0 10.8 10.8 0 0 1 8.654-8.479.19.19 0 0 0 .003-.376z" fill="#f5c84c"/><circle cx="210.019" cy="131.285" fill="#ef4460" r="3.285"/><circle cx="17.019" cy="134.285" fill="#f5c84c" r="3.285"/><circle cx="53.019" cy="78.285" fill="#70d6f9" r="3.285"/><path d="m194.213 185.286a5.481 5.481 0 0 1 -3.054-.93l-11-7.389a6.218 6.218 0 0 1 -2.451-7.285c.9-2.457.461-5.877-1.133-8.925-5.155-9.86-15.406-11.526-29.636-4.82a2.5 2.5 0 0 1 -3.373-3.225c.9-2.154 2.049-4.893 3.534-8.4a47.091 47.091 0 0 0 2.848-10.151 2.5 2.5 0 0 1 2.281-2.062c.217-.018 22.041-1.494 25.991.892 4.354 2.63 7.276 9.508 10.369 16.789 1.941 4.571 3.95 9.3 6.153 12.4 5.108 7.194 6.329 11.932 4.839 18.778a5.492 5.492 0 0 1 -5.367 4.321zm-31.985-38.437c10.685 0 16.162 6.588 18.778 11.592 2.257 4.318 2.78 9.16 1.4 12.952a1.253 1.253 0 0 0 .541 1.423l11 7.389a.491.491 0 0 0 .748-.3c1.182-5.43.278-8.754-4.029-14.821-2.518-3.546-4.633-8.526-6.68-13.343-2.522-5.939-5.381-12.67-8.352-14.464-1.542-.651-11.341-.914-21.127-.315a49.677 49.677 0 0 1 -2.8 9.306q-.63 1.487-1.182 2.794a35.614 35.614 0 0 1 11.703-2.213z"/><path d="m145.248 158.036a2.5 2.5 0 0 1 -2.473-2.149c-1.639-11.548-8.149-15.049-8.214-15.083a2.5 2.5 0 1 1 2.3-4.438c.362.187 8.866 4.749 10.864 18.818a2.5 2.5 0 0 1 -2.479 2.852z"/><path d="m72.933 256h-17.755c-3.846 0-5.195-2.25-5.65-4.138a85.737 85.737 0 0 0 -6.843-18.409c-3.36-7.036-6.014-12.593-3.809-22.144 2.568-11.123.591-13.246-3.347-17.473-3.452-3.707-8.181-8.782-11.938-20.927a29.638 29.638 0 0 1 1.433-21.862c6.306-13.574 21.249-21.23 36.383-18.658a138.758 138.758 0 0 0 23.093-1.106c10.777-1.492 24.64-5.1 29.477-13.787a8.439 8.439 0 0 0 1.021-4.382 2.5 2.5 0 0 1 3.369-2.425c4.033 1.5 11.105 4.728 15.443 10.149l.526-.886a3.851 3.851 0 0 1 5.344-1.316 34.3 34.3 0 0 1 14.284 19.242 2.493 2.493 0 0 1 .035 1.322 46.282 46.282 0 0 1 -2.291 7.065c-1.574 3.718-2.776 6.582-3.7 8.788a4.786 4.786 0 0 0 2.94 6.392c13.67 4.455 16.688 6.972 17.837 8.847 2.558 4.172 2.009 11.306 1.428 18.859-.362 4.724-.738 9.607-.236 13.194 1.173 8.378.119 12.955-4.179 18.139a5.36 5.36 0 0 1 -8.819-.835l-6.084-11.087a6.055 6.055 0 0 1 1.145-7.394c1.819-1.673 2.942-4.733 2.932-7.987v-.368c-.006-3.066-.014-6.882-2.5-9.078-2.19-1.933-6.172-2.562-11.837-1.869a28.381 28.381 0 0 1 -8.4-.188l-.144-.026a.732.732 0 0 0 -.563.163 39.608 39.608 0 0 1 -10.916 5.986l-6.551 2.348c-11.449 4.018-24.253 4.471-39.144 1.389-2.446 5.35-6.368 9.247-10.513 13.365-2.041 2.027-4.152 4.124-6.137 6.459a11.066 11.066 0 0 0 -2.491 8.738c.783 7 6.4 13.987 9.1 16.008a14.253 14.253 0 0 0 3.108 1.3c3.532 1.216 8.87 3.053 10.187 8.734a10.731 10.731 0 0 1 -1.692 8.036 4.514 4.514 0 0 1 -3.546 1.822zm-18.472-5.071a2.747 2.747 0 0 0 .717.071h17.446a6.378 6.378 0 0 0 .676-3.728c-.642-2.769-3.283-3.875-6.944-5.135a16.447 16.447 0 0 1 -4.48-2.029c-3.915-2.937-10.14-11.15-11.068-19.453a15.887 15.887 0 0 1 3.65-12.531c2.122-2.5 4.308-4.668 6.423-6.769 4.092-4.064 7.625-7.575 9.67-12.3a4.357 4.357 0 0 1 4.895-2.513c14.184 3 26.269 2.641 36.945-1.1l6.535-2.343a34.618 34.618 0 0 0 9.542-5.232 5.735 5.735 0 0 1 4.5-1.133l.143.025a23.293 23.293 0 0 0 6.918.149c7.244-.886 12.4.122 15.754 3.084 4.172 3.685 4.184 9.18 4.191 12.816v.361c.015 4.684-1.684 9.051-4.547 11.685a1.082 1.082 0 0 0 -.147 1.308l6.083 11.087a.333.333 0 0 0 .275.176.345.345 0 0 0 .312-.127c3.367-4.061 4.058-7.258 3.077-14.255-.577-4.123-.18-9.281.2-14.27.47-6.127 1-13.072-.707-15.863-.32-.521-2.354-2.544-15.123-6.706a9.785 9.785 0 0 1 -6.006-13.07c.921-2.212 2.128-5.084 3.707-8.813a41.036 41.036 0 0 0 1.871-5.637 29.464 29.464 0 0 0 -10.949-15.146l-.8 1.354a3.851 3.851 0 0 1 -6.528.159c-2.6-3.952-7.3-6.723-11.065-8.432a13.022 13.022 0 0 1 -1.284 3.314c-10.988 19.73-55.458 17.546-57.343 17.442a2.619 2.619 0 0 1 -.294-.034c-12.963-2.262-25.769 4.24-31.146 15.812a24.783 24.783 0 0 0 -1.19 18.279c3.419 11.051 7.522 15.456 10.819 19 4.935 5.3 7.579 8.93 4.561 22.006-1.812 7.848.281 12.231 3.449 18.864a91.286 91.286 0 0 1 7.193 19.393 1.766 1.766 0 0 0 .069.234z"/><path d="m91.108 87.328a37.356 37.356 0 0 1 -15.482-3.328 8.849 8.849 0 0 1 -.126-15.9c5.5-2.674 10.034-3.989 13.478-3.886a106.175 106.175 0 0 1 11.139 1.379c9.639 1.485 22.841 3.517 28.991.985 1.947-.8 3.509-1.525 4.887-2.163 4.908-2.273 8.15-3.773 11.908 1.323.025.027.03.038.022.043l1.711.047a5.241 5.241 0 0 1 5.05 5.172c.092 3.9-.5 9.247-3.822 12.56a9.991 9.991 0 0 1 -7.633 2.807 38.251 38.251 0 0 1 -9.444-1.681c-6.47-1.747-13.8-3.727-31.645 1.431a32.723 32.723 0 0 1 -9.034 1.211zm-2.491-18.119c-2.588 0-6.358 1.168-10.93 3.389a3.85 3.85 0 0 0 .044 6.861 31.42 31.42 0 0 0 21.022 1.849c19.185-5.545 27.235-3.371 34.337-1.454a33.873 33.873 0 0 0 8.279 1.51 5.125 5.125 0 0 0 3.967-1.351c1.591-1.585 2.448-4.829 2.351-8.9 0-.169-.1-.285-.185-.287l-1.785-.049a4.942 4.942 0 0 1 -3.835-2.072c-1.335-1.811-1.336-1.811-5.783.247-1.354.627-3.037 1.407-5.083 2.249-7.44 3.064-20.869 1-31.658-.666a104.353 104.353 0 0 0 -10.514-1.323c-.074-.002-.151-.003-.227-.003z"/><path d="m230.292 81.25a9.567 9.567 0 0 1 -9.518-8.718l-.377-4.32a9.571 9.571 0 0 1 8.7-10.337 9.577 9.577 0 0 1 10.352 8.682l.377 4.319a9.571 9.571 0 0 1 -8.7 10.338c-.278.025-.558.036-.834.036zm-.366-18.412c-.132 0-.265.006-.4.018a4.573 4.573 0 0 0 -4.148 4.922l.377 4.32a4.562 4.562 0 0 0 9.089-.787l-.377-4.32a4.563 4.563 0 0 0 -4.541-4.153z"/><path d="m150.76 78.467a2.5 2.5 0 0 1 -.227-4.989l70.894-6.526a2.5 2.5 0 1 1 .459 4.978l-70.894 6.527c-.078.007-.155.01-.232.01z"/><path d="m237.529 70.719a2.5 2.5 0 0 1 -.166-4.994l15.968-1.079a2.5 2.5 0 1 1 .338 4.988l-15.969 1.079c-.056.004-.114.006-.171.006z"/><path d="m184.746 134.3a4.966 4.966 0 0 1 -1.317-.179 4.858 4.858 0 0 1 -3.45-5.866c2.532-10.319 7.776-17.608 15.167-21.081 11.729-5.51 21.247-22.259 21.217-37.337-.026-13.2-8.622-31.322-21.376-37.252-7.4-3.439-12.666-10.708-15.24-21.021a4.886 4.886 0 0 1 9.387-2.695c1.211 3.757 4.984 10.679 16.655 14.812 15.161 5.369 23.238 22.258 25.74 36.274a2.5 2.5 0 0 1 -2.159 2.921 4.586 4.586 0 0 0 -3.992 4.9l.377 4.319a4.549 4.549 0 0 0 3.841 4.089 2.5 2.5 0 0 1 2.076 2.875c-2.348 14.263-10.331 31.467-25.7 36.978-11.656 4.179-15.4 11.115-16.6 14.877a4.85 4.85 0 0 1 -4.626 3.386zm36.354-59.973c-1.586 14.046-10.388 31.062-23.832 37.377-5.444 2.558-9.5 7.877-11.808 15.456 2.126-4.8 7.125-11.633 18.821-15.827 12.6-4.517 19.549-18.561 22.061-30.945a9.538 9.538 0 0 1 -5.242-6.061zm-35.87-61.685c2.342 7.576 6.413 12.88 11.861 15.413 13.089 6.086 21.836 22.278 23.833 36.066a9.5 9.5 0 0 1 5.236-5.513c-2.654-12.131-9.66-25.828-22.041-30.208-11.714-4.15-16.739-10.97-18.885-15.758z"/><path d="m151.572 141.124a2.5 2.5 0 0 1 -2.391-1.776 29.549 29.549 0 0 0 -11.16-15.815l-.8 1.354a3.85 3.85 0 0 1 -6.527.159c-3.369-5.117-10.262-8.255-14.07-9.67a2.5 2.5 0 0 1 -1.628-2.261 9.31 9.31 0 0 0 -.93-3.77l-12.609-25.678a2.5 2.5 0 0 1 1.643-3.527c16.117-4.025 23.489-2.038 30-.284a33.919 33.919 0 0 0 8.278 1.508 5.125 5.125 0 0 0 3.967-1.351c1.591-1.585 2.448-4.829 2.351-8.9a.36.36 0 0 0 -.044-.155 2.5 2.5 0 0 1 1.775-3.538c10.386-2.021 24.822-4.092 34.608-2.483a2.992 2.992 0 0 0 1.18-.023c4.22-1.015 18.834-4.316 29.544-4.043a27.575 27.575 0 0 0 3.318-.123 2.491 2.491 0 0 1 2.7 2.1 45.752 45.752 0 0 1 .591 6.984 44.071 44.071 0 0 1 -.314 5.156 2.5 2.5 0 0 1 -2.076 2.177 19.43 19.43 0 0 0 -6.243 2.064c-6.67 3.632-19.61 3.906-24.841 3.859a2.837 2.837 0 0 0 -1.309.325c-4.212 2.264-15.343 7.742-27.7 9.7a1.554 1.554 0 0 0 -1.337 1.311 57.734 57.734 0 0 1 -1.91 8.809 6.228 6.228 0 0 0 -.2 2.442c.63 5.78 1.751 20.62-1.429 33.547a2.5 2.5 0 0 1 -2.361 1.9zm-13.916-23.067a3.816 3.816 0 0 1 2.019.579 33.324 33.324 0 0 1 10.868 11.387 115.038 115.038 0 0 0 -.084-23.808 11.178 11.178 0 0 1 .375-4.4 52.99 52.99 0 0 0 1.748-8.042 6.516 6.516 0 0 1 5.513-5.6c11.929-1.889 23.006-7.492 26.117-9.165a7.775 7.775 0 0 1 3.724-.921c7.832.072 17.794-.741 22.4-3.251a23.431 23.431 0 0 1 5.916-2.227c.073-.965.109-1.892.107-2.769a37.669 37.669 0 0 0 -.23-3.971c-.5.013-1 .012-1.5 0-10.122-.233-24.184 2.927-28.252 3.906a7.956 7.956 0 0 1 -3.162.1c-8.69-1.427-22.037.468-30.521 2.02-.019 3.794-.753 8.6-3.83 11.664a9.994 9.994 0 0 1 -7.633 2.807 38.347 38.347 0 0 1 -9.442-1.678c-5.5-1.483-11.68-3.151-24.458-.4l11.221 22.855a14.058 14.058 0 0 1 1.286 4.122c4.12 1.681 10.119 4.766 13.967 9.574l.526-.886a3.827 3.827 0 0 1 2.4-1.783 3.892 3.892 0 0 1 .925-.113z"/><path d="m161.664 222.419c-.17 0-.34-.007-.51-.024a5.332 5.332 0 0 1 -4.176-2.746l-6.084-11.087a6.054 6.054 0 0 1 1.145-7.393 9.223 9.223 0 0 0 2.4-4.178 2.5 2.5 0 0 1 4.095-1.137l11.084 10.228a2.5 2.5 0 0 1 .805 1.832 18.007 18.007 0 0 1 -4.611 12.55 5.384 5.384 0 0 1 -4.148 1.955zm-3.922-20.493a12.461 12.461 0 0 1 -2.318 2.923 1.083 1.083 0 0 0 -.148 1.307l6.084 11.088a.318.318 0 0 0 .266.173.369.369 0 0 0 .335-.141 12.837 12.837 0 0 0 3.439-8.284z"/><path d="m194.213 185.286a5.481 5.481 0 0 1 -3.054-.93l-11-7.389a6.218 6.218 0 0 1 -2.451-7.285 8.809 8.809 0 0 0 .423-3.457 2.5 2.5 0 0 1 2.881-2.613l15.057 2.343a2.5 2.5 0 0 1 1.839 1.328 18.7 18.7 0 0 1 1.673 13.682 5.492 5.492 0 0 1 -5.367 4.321zm-11.213-16.304a12.152 12.152 0 0 1 -.6 2.411 1.252 1.252 0 0 0 .541 1.422l11 7.389a.491.491 0 0 0 .748-.3 13.7 13.7 0 0 0 -.7-9.211z"/><path d="m85.039 256h-12.106a2.5 2.5 0 0 1 -.325-4.979 6.326 6.326 0 0 0 .692-3.749c-.642-2.769-3.283-3.875-6.944-5.135a16.447 16.447 0 0 1 -4.48-2.029c-3.915-2.937-10.14-11.15-11.068-19.453a15.887 15.887 0 0 1 3.65-12.531c2.122-2.5 4.308-4.668 6.423-6.769 4.092-4.064 7.625-7.575 9.67-12.3a4.357 4.357 0 0 1 4.895-2.513 96.1 96.1 0 0 0 9.543 1.537 2.5 2.5 0 0 1 2 3.53c-2.453 5.332-6.359 9.217-10.495 13.329-2.037 2.026-4.143 4.12-6.125 6.452a11.062 11.062 0 0 0 -2.491 8.737c.783 7 6.405 13.987 9.1 16.009a14.387 14.387 0 0 0 3.109 1.3c3.532 1.216 8.869 3.053 10.186 8.733a10.7 10.7 0 0 1 -1.686 8.008 4.518 4.518 0 0 1 -3.548 1.823zm-7.068-5h6.762a6.322 6.322 0 0 0 .672-3.7c-.642-2.768-3.282-3.874-6.942-5.134a16.432 16.432 0 0 1 -4.482-2.03c-3.914-2.936-10.139-11.149-11.068-19.452a15.889 15.889 0 0 1 3.65-12.532c2.118-2.491 4.3-4.66 6.41-6.758a57.106 57.106 0 0 0 7.777-8.817c-1.917-.284-3.866-.631-5.832-1.037-2.446 5.35-6.368 9.247-10.513 13.365-2.042 2.027-4.152 4.124-6.137 6.459a11.066 11.066 0 0 0 -2.491 8.738c.783 7 6.4 13.987 9.1 16.008a14.253 14.253 0 0 0 3.108 1.3c3.532 1.216 8.87 3.053 10.187 8.734a10.845 10.845 0 0 1 -.201 4.856z"/><path d="m5.491 218.965a3.7 3.7 0 0 1 -3.384-5.185c3.116-7.168 1.571-13.45-.065-20.1-1.852-7.532-3.951-16.066 1.266-26.08 4.826-9.264 12.669-14.507 22.68-15.161a2.5 2.5 0 0 1 2.526 3.31 24.242 24.242 0 0 0 -1.243 10.251 2.5 2.5 0 0 1 -.572 1.841c-3.042 3.628-2.9 11.367-2.741 20.328.033 1.792.066 3.632.075 5.507.082 16.665-12.02 23.071-17.227 25.052a3.7 3.7 0 0 1 -1.315.237zm17.259-61.051c-6.537 1.385-11.576 5.408-15.008 12-4.342 8.337-2.642 15.251-.842 22.57 1.559 6.339 3.164 12.869.89 20.327 5.1-2.667 11.3-8.163 11.245-19.115-.009-1.852-.042-3.672-.074-5.442-.17-9.426-.318-17.635 3.258-22.779a28.972 28.972 0 0 1 .531-7.561z"/><path d="m183.23 126.171a2.494 2.494 0 0 1 -1.952-.936l-34.73-43.317a2.5 2.5 0 1 1 3.9-3.128l34.731 43.317a2.5 2.5 0 0 1 -1.949 4.064z"/><path d="m146.47 70.6a2.5 2.5 0 0 1 -2.06-3.913l35.748-52.134a2.5 2.5 0 1 1 4.123 2.827l-35.748 52.135a2.494 2.494 0 0 1 -2.063 1.085z"/><path d="m245.729 78.879a2.5 2.5 0 0 1 -1.912-4.108l6.158-7.323-7.339-6.148a2.5 2.5 0 1 1 3.209-3.834l9.259 7.753a2.5 2.5 0 0 1 .309 3.526l-7.769 9.239a2.5 2.5 0 0 1 -1.915.895z"/><path d="m72.933 256h-17.755c-3.846 0-5.195-2.25-5.65-4.138a77.61 77.61 0 0 0 -2.733-8.98 2.5 2.5 0 0 1 2.343-3.372h23.128a2.5 2.5 0 0 1 1.354.4 9.967 9.967 0 0 1 4.551 6.233 10.731 10.731 0 0 1 -1.692 8.036 4.514 4.514 0 0 1 -3.546 1.821zm-18.472-5.071a2.747 2.747 0 0 0 .717.071h17.446a6.378 6.378 0 0 0 .676-3.728 4.686 4.686 0 0 0 -1.823-2.761h-18.824c.651 2.015 1.225 4.06 1.737 6.18a1.788 1.788 0 0 0 .071.238z"/><path d="m85.039 256h-12.106a2.5 2.5 0 0 1 -.325-4.979 6.326 6.326 0 0 0 .692-3.749 4.947 4.947 0 0 0 -2.389-3.16 2.5 2.5 0 0 1 1.355-4.6h12.065a2.5 2.5 0 0 1 1.346.394 9.987 9.987 0 0 1 4.6 6.263 10.7 10.7 0 0 1 -1.686 8.009 4.518 4.518 0 0 1 -3.552 1.822zm-7.068-5h6.762a6.322 6.322 0 0 0 .672-3.7 4.7 4.7 0 0 0 -1.857-2.787h-5.907a9.852 9.852 0 0 1 .53 1.632 10.845 10.845 0 0 1 -.2 4.855z"/><path d="m126.45 56.4a4.885 4.885 0 0 1 -.525-.027l-14.812-1.573a9.3 9.3 0 0 1 -6.254-3.377c-2.49-3.042-5.681-7.681-6.744-12.51-.856-3.889.348-8.513 3.22-12.37a19.7 19.7 0 0 1 14.332-7.916c11.736-.869 20.937 5.411 22.356 15.279a4.145 4.145 0 0 1 -1.079 3.429 4.268 4.268 0 0 1 -3.423 1.353l-5.592-.391-2.14 2.641 4.836 8.087a4.871 4.871 0 0 1 -4.175 7.375zm-8.591-32.848q-.894 0-1.821.069a14.7 14.7 0 0 0 -10.693 5.915c-2.018 2.711-2.895 5.817-2.347 8.309.9 4.068 3.974 8.273 5.73 10.418a4.325 4.325 0 0 0 2.91 1.571l14.561 1.54-4.96-8.3a4.294 4.294 0 0 1 .347-4.888l2.692-3.322a4.311 4.311 0 0 1 3.629-1.578l4.986.349c-1.393-6.198-7.219-10.086-15.034-10.086z"/><path d="m100.313 54.766c-.077 0-.153 0-.231 0a5.042 5.042 0 0 1 -3.627-1.767c-5.379-6.253-12.9-21.843-2.867-36.087 16.717-23.736 44.121-16.346 52.123-13.512a4.711 4.711 0 0 1 2.023 7.485l-14.273 16.906a2.5 2.5 0 0 1 -1.809.885 2.456 2.456 0 0 1 -1.875-.737c-3.141-3.161-8.146-4.738-13.739-4.321a14.7 14.7 0 0 0 -10.693 5.915c-2.018 2.711-2.895 5.817-2.347 8.309a24.756 24.756 0 0 0 4.556 8.906 2.5 2.5 0 0 1 -.264 3.291l-3.368 3.261a5.214 5.214 0 0 1 -3.609 1.466zm26.372-49.9a34.791 34.791 0 0 0 -29.009 14.921c-10.322 14.652 2.44 29.8 2.57 29.946.1.035.145.026.2-.025l1.827-1.769a26.883 26.883 0 0 1 -4.156-9.022c-.856-3.889.348-8.513 3.22-12.37a19.7 19.7 0 0 1 14.332-7.916 23.348 23.348 0 0 1 15.6 4.011l12.384-14.67a51.749 51.749 0 0 0 -16.968-3.109z"/><path d="m130.755 65.741a21.424 21.424 0 0 1 -4.292-.437l-9.381-1.918a12.151 12.151 0 0 1 -9.431-9.28l-.361-1.643a2.5 2.5 0 0 1 3.3-2.883 4.365 4.365 0 0 0 1.043.251l14.561 1.54-4.96-8.3a4.294 4.294 0 0 1 .347-4.888l2.692-3.322a4.311 4.311 0 0 1 3.629-1.578l5.71.4a2.5 2.5 0 0 1 3.727 1.943l.406 4.409a1.664 1.664 0 0 0 .639 1.159l3.751 2.9a3.536 3.536 0 0 1 .056 5.549l-1.744 1.408-.384 2.3a5.458 5.458 0 0 0 .275 2.807l.341.911a5.977 5.977 0 0 1 -4.324 7.937l-1.02.223a21.391 21.391 0 0 1 -4.58.512zm-17.447-10.7a7.161 7.161 0 0 0 4.775 3.452l9.381 1.917a16.336 16.336 0 0 0 6.807-.048l1.02-.224a.975.975 0 0 0 .655-.491.961.961 0 0 0 .056-.806l-.341-.911a10.453 10.453 0 0 1 -.524-5.382l.474-2.854a3.526 3.526 0 0 1 1.27-2.174l.734-.593-2.288-1.772a6.686 6.686 0 0 1 -2.556-4.651l-.172-1.872-4.67-.326-2.14 2.641 4.836 8.087a4.871 4.871 0 0 1 -4.7 7.341z"/><path d="m120.7 72.775c-2.011 0-4.24-.108-6.712-.322a2.5 2.5 0 0 1 -2.267-2.2 2.548 2.548 0 0 1 0-.579l-.8-10.558a2.5 2.5 0 0 1 4.073-2.116 7.085 7.085 0 0 0 3.089 1.493l9.381 1.917a16.336 16.336 0 0 0 6.807-.048l.246-.053a2.5 2.5 0 0 1 2.952 1.823l.9 3.523a2.5 2.5 0 0 1 -1.38 2.892l-.875.4c-1.354.628-3.041 1.408-5.1 2.257a27.351 27.351 0 0 1 -10.314 1.571zm-4.121-5.142c5.749.359 9.958.005 12.532-1.055.706-.291 1.361-.571 1.974-.84a21.306 21.306 0 0 1 -4.622-.434l-9.381-1.918c-.283-.057-.563-.126-.842-.205z"/></svg>