<?xml version="1.0" encoding="iso-8859-1"?>
<!-- Generator: Adobe Illustrator 19.0.0, SVG Export Plug-In . SVG Version: 6.00 Build 0)  -->
<svg version="1.1" id="Layer_1" xmlns="http://www.w3.org/2000/svg" xmlns:xlink="http://www.w3.org/1999/xlink" x="0px" y="0px"
	 viewBox="0 0 512 512" style="enable-background:new 0 0 512 512;" xml:space="preserve">
<rect x="78.367" y="472.816" style="fill:#79CAE8;" width="355.265" height="31.347"/>
<path style="fill:#4B92B9;" d="M260.227,154.122h-18.855c-15.582,0-28.212,12.631-28.212,28.212l0,0h75.28l0,0
	C288.439,166.753,275.808,154.122,260.227,154.122z"/>
<rect x="188.082" y="182.335" style="fill:#79CAE8;" width="125.388" height="29.257"/>
<rect x="52.245" y="211.592" style="fill:#4B92B9;" width="407.51" height="261.224"/>
<g>
	<path style="fill:#CAF9F4;" d="M83.592,420.571V263.837c0-11.542,9.356-20.898,20.898-20.898h219.429
		c11.542,0,20.898,9.356,20.898,20.898v156.735c0,11.542-9.356,20.898-20.898,20.898H104.49
		C92.948,441.469,83.592,432.113,83.592,420.571z"/>
	<circle style="fill:#CAF9F4;" cx="128.282" cy="24.555" r="16.718"/>
	<circle style="fill:#CAF9F4;" cx="368.086" cy="24.555" r="16.718"/>
</g>
<circle style="fill:#FFFFFF;" cx="402.286" cy="287.535" r="29.78"/>
<path d="M467.592,203.755H321.306v-29.257h-25.899c-2.533-11.378-10.452-20.746-20.94-25.274l84.439-101.902
	c2.839,1.149,5.936,1.788,9.182,1.788c13.54,0,24.555-11.015,24.555-24.555S381.628,0,368.088,0s-24.555,11.015-24.555,24.555
	c0,4.59,1.268,8.888,3.47,12.567l-90.456,109.164h-15.176c-0.506,0-1.007,0.018-1.509,0.039L149.371,37.118
	c2.2-3.678,3.468-7.975,3.468-12.563C152.839,11.015,141.824,0,128.284,0s-24.555,11.015-24.555,24.555s11.015,24.555,24.555,24.555
	c3.247,0,6.346-0.638,9.186-1.789l85.976,103.757c-8.638,4.973-15.029,13.418-17.256,23.419h-25.945v29.257H44.408v276.898h26.122
	V512h370.939v-31.347h26.122V203.755z M119.403,24.555c0-4.897,3.984-8.882,8.882-8.882s8.882,3.984,8.882,8.882
	s-3.984,8.882-8.882,8.882C123.388,33.437,119.403,29.453,119.403,24.555z M368.088,15.673c4.897,0,8.882,3.984,8.882,8.882
	s-3.984,8.882-8.882,8.882c-4.897,0-8.882-3.984-8.882-8.882S363.192,15.673,368.088,15.673z M241.371,161.959h18.855
	c8.458,0,15.727,5.184,18.804,12.539h-56.462C225.645,167.143,232.913,161.959,241.371,161.959z M195.918,190.171h109.714v13.584
	H195.918V190.171z M425.796,496.327H86.204v-15.673h339.592V496.327z M451.918,464.98H60.082V219.429h391.837V464.98z"/>
<path d="M104.49,449.306h219.429c15.844,0,28.735-12.891,28.735-28.735V263.837c0-15.844-12.891-28.735-28.735-28.735H104.49
	c-15.844,0-28.735,12.891-28.735,28.735v156.735C75.755,436.415,88.646,449.306,104.49,449.306z M91.429,263.837
	c0-7.202,5.859-13.061,13.061-13.061h219.429c7.202,0,13.061,5.859,13.061,13.061v156.735c0,7.202-5.859,13.061-13.061,13.061
	H104.49c-7.202,0-13.061-5.859-13.061-13.061V263.837z"/>
<path d="M414.315,305.879c-6.407,4.197-14.372,4.771-21.302,1.538c-6.931-3.231-11.609-9.701-12.515-17.308l-15.564,1.853
	c1.551,13.032,9.57,24.119,21.453,29.659c5.1,2.378,10.523,3.555,15.924,3.555c7.182,0,14.32-2.081,20.588-6.186L414.315,305.879z"
	/>
<path d="M448.213,300.301l-9.268-4.322c0.975-4.214,1.216-8.569,0.692-12.878c-1.55-13.033-9.57-24.121-21.453-29.662
	c-11.882-5.543-25.532-4.56-36.498,2.621c-3.648,2.376-6.833,5.363-9.435,8.818l-9.268-4.322l-6.625,14.204l85.23,39.744
	L448.213,300.301z M390.255,269.183c6.41-4.195,14.375-4.77,21.304-1.539c6.931,3.231,11.609,9.701,12.516,17.327
	c0.166,1.37,0.189,2.748,0.093,4.117l-37.141-17.319C388.017,270.812,389.092,269.941,390.255,269.183z"/>
<rect x="378.775" y="350.041" width="15.673" height="15.673"/>
<rect x="378.775" y="380.51" width="15.673" height="15.673"/>
<rect x="378.775" y="410.99" width="15.673" height="15.673"/>
<rect x="410.122" y="350.041" width="15.673" height="15.673"/>
<rect x="410.122" y="380.51" width="15.673" height="15.673"/>
<rect x="410.122" y="410.99" width="15.673" height="15.673"/>
<g>
</g>
<g>
</g>
<g>
</g>
<g>
</g>
<g>
</g>
<g>
</g>
<g>
</g>
<g>
</g>
<g>
</g>
<g>
</g>
<g>
</g>
<g>
</g>
<g>
</g>
<g>
</g>
<g>
</g>
</svg>
