<?xml version="1.0" encoding="iso-8859-1"?>
<!-- Generator: Adobe Illustrator 19.0.0, SVG Export Plug-In . SVG Version: 6.00 Build 0)  -->
<svg version="1.1" id="Capa_1" xmlns="http://www.w3.org/2000/svg" xmlns:xlink="http://www.w3.org/1999/xlink" x="0px" y="0px"
	 viewBox="0 0 511.999 511.999" style="enable-background:new 0 0 511.999 511.999;" xml:space="preserve">
<rect x="15.36" y="28.786" style="fill:#1E608B;" width="481.28" height="454.43"/>
<path style="fill:#266E96;" d="M293.284,28.786h-37.269h-0.053h-37.269c0,208.151-203.334,454.427-203.334,454.427h240.602h0.053
	h240.602C496.618,483.212,293.284,236.937,293.284,28.786z"/>
<rect x="15.36" y="342.229" style="fill:#DDA064;" width="481.28" height="140.98"/>
<path style="fill:#E8AD77;" d="M397.733,342.229H15.36v40.73h322.762C365.255,382.959,388.424,366.065,397.733,342.229z"/>
<path style="fill:#D12439;" d="M85.262,483.212H15.36V28.786h163.756c43.883,83.873-120.251,232.017-120.251,232.017
	s62.497,170.076,37.163,216.075C93.871,480.795,89.736,483.212,85.262,483.212z"/>
<g>
	<path style="fill:#EF4A50;" d="M60.25,476.879c25.334-45.999-31.093-216.075-31.093-216.075S90.628,115.793,64.74,28.786H15.36
		v454.427h34.123C53.958,483.212,58.093,480.795,60.25,476.879z"/>
	<path style="fill:#EF4A50;" d="M179.117,28.786h-35.355C132.814,163.714,29.157,260.803,29.157,260.803
		S85.584,430.88,60.25,476.879c-2.157,3.916-6.292,6.334-10.766,6.334h35.778c4.474,0,8.609-2.417,10.766-6.334
		c25.334-45.999-37.163-216.075-37.163-216.075S222.999,112.659,179.117,28.786z"/>
</g>
<path style="fill:#FEC93E;" d="M64.538,281.666H14.703c-3.972,0-7.192-3.22-7.192-7.192v-15.417c0-3.972,3.22-7.192,7.192-7.192
	h49.835c3.972,0,7.192,3.22,7.192,7.192v15.417C71.73,278.446,68.51,281.666,64.538,281.666z"/>
<path style="fill:#D12439;" d="M426.738,483.212h69.901V28.786H332.883c-43.882,83.873,120.252,232.018,120.252,232.018
	s-62.497,170.076-37.163,216.075C418.129,480.795,422.264,483.212,426.738,483.212z"/>
<g>
	<path style="fill:#EF4A50;" d="M451.75,476.879c-25.334-45.999,31.093-216.075,31.093-216.075s-61.471-145.01-35.583-232.018h49.38
		v454.427h-34.123C458.042,483.212,453.907,480.795,451.75,476.879z"/>
	<path style="fill:#EF4A50;" d="M332.883,28.786h35.355c10.948,134.928,114.604,232.018,114.604,232.018
		S426.416,430.88,451.75,476.879c2.157,3.916,6.292,6.334,10.766,6.334h-35.778c-4.474,0-8.609-2.417-10.766-6.334
		c-25.334-45.999,37.163-216.075,37.163-216.075S289.001,112.659,332.883,28.786z"/>
</g>
<path style="fill:#FEC93E;" d="M447.462,281.666h49.835c3.972,0,7.192-3.22,7.192-7.192v-15.417c0-3.972-3.22-7.192-7.192-7.192
	h-49.835c-3.972,0-7.192,3.22-7.192,7.192v15.417C440.27,278.446,443.49,281.666,447.462,281.666z"/>
<path style="fill:#EFB635;" d="M497.297,266.766h-49.835c-3.972,0-7.192-3.22-7.192-7.192v14.9c0,3.972,3.22,7.192,7.192,7.192
	h49.835c3.972,0,7.192-3.22,7.192-7.192v-14.9C504.489,263.546,501.269,266.766,497.297,266.766z"/>
<path style="fill:#D12439;" d="M451.75,476.879c-19.86-36.059,10.522-148.359,24.581-195.213h-28.869
	c-0.519,0-1.024-0.058-1.512-0.162c-15.646,46.756-49.861,159.274-29.978,195.375c2.157,3.916,6.292,6.334,10.767,6.334h35.778
	C458.042,483.212,453.907,480.795,451.75,476.879z"/>
<path style="fill:#EFB635;" d="M64.538,266.766H14.703c-3.972,0-7.192-3.22-7.192-7.192v14.9c0,3.972,3.22,7.192,7.192,7.192h49.835
	c3.972,0,7.192-3.22,7.192-7.192v-14.9C71.73,263.546,68.51,266.766,64.538,266.766z"/>
<g>
	<path style="fill:#D12439;" d="M64.538,281.666H35.669C49.728,328.519,80.11,440.82,60.25,476.879
		c-2.157,3.916-6.292,6.334-10.766,6.334h35.778c4.474,0,8.609-2.417,10.766-6.334c19.883-36.101-14.332-148.619-29.978-195.375
		C65.562,281.608,65.057,281.666,64.538,281.666z"/>
	<path style="fill:#D12439;" d="M496.64,28.786c0,33.706-107.738,74.374-240.64,74.374S15.36,62.492,15.36,28.786H496.64z"/>
	<path style="fill:#D12439;" d="M232.111,410.541h-39.009c-13.09,0-23.701,10.612-23.701,23.702v48.97h86.412v-48.97
		C255.813,421.153,245.201,410.541,232.111,410.541z"/>
	<path style="fill:#D12439;" d="M145.699,410.541H106.69c-13.09,0-23.701,10.612-23.701,23.702v48.97h86.412v-48.97
		C169.401,421.153,158.789,410.541,145.699,410.541z"/>
</g>
<g>
	<path style="fill:#CE2E41;" d="M145.699,410.541H106.69c-0.708,0-1.407,0.037-2.098,0.098
		c12.106,1.063,21.603,11.222,21.603,23.604v48.97h43.206v-48.97C169.401,421.152,158.789,410.541,145.699,410.541z"/>
	<path style="fill:#CE2E41;" d="M232.314,410.541h-39.009c-0.708,0-1.407,0.037-2.098,0.098
		c12.106,1.063,21.603,11.222,21.603,23.604v48.97h43.206v-48.97C256.015,421.152,245.404,410.541,232.314,410.541z"/>
</g>
<g>
	<path style="fill:#D12439;" d="M318.523,410.541h-39.009c-13.09,0-23.702,10.612-23.702,23.702v48.97h86.412v-48.97
		C342.225,421.153,331.613,410.541,318.523,410.541z"/>
	<path style="fill:#D12439;" d="M404.936,410.541h-39.009c-13.09,0-23.702,10.612-23.702,23.702v48.97h86.412v-48.97
		C428.637,421.153,418.025,410.541,404.936,410.541z"/>
</g>
<g>
	<path style="fill:#CE2E41;" d="M318.523,410.541h-39.009c-0.708,0-1.407,0.037-2.098,0.098
		c12.106,1.063,21.603,11.222,21.603,23.604v48.97h43.206v-48.97C342.225,421.152,331.613,410.541,318.523,410.541z"/>
	<path style="fill:#CE2E41;" d="M404.935,410.541h-39.009c-0.708,0-1.407,0.037-2.098,0.098
		c12.106,1.063,21.603,11.222,21.603,23.604v48.97h43.206v-48.97C428.637,421.152,418.025,410.541,404.935,410.541z"/>
</g>
<path d="M504.151,246.06V28.786c0-4.148-3.362-7.511-7.511-7.511H15.36c-4.149,0-7.511,3.363-7.511,7.511v217.275
	C3.187,248.529,0,253.425,0,259.057v15.417c0,5.632,3.187,10.529,7.849,12.997v195.741c0,4.148,3.363,7.511,7.511,7.511h34.124
	h33.505h2.273H169.4h86.413h86.412h84.513h1.898h33.879h34.124c4.149,0,7.511-3.363,7.511-7.511V287.471
	c4.662-2.469,7.849-7.365,7.849-12.997v-15.417C512,253.425,508.813,248.529,504.151,246.06z M486.296,36.297
	c-3.009,4.424-8.563,9.607-17.356,15.129c-0.108,0.068-0.218,0.135-0.326,0.203c-0.51,0.318-1.034,0.637-1.565,0.957
	c-0.243,0.146-0.486,0.291-0.732,0.437c-0.404,0.24-0.819,0.48-1.236,0.721c-0.336,0.194-0.671,0.388-1.015,0.583
	c-0.33,0.187-0.671,0.375-1.009,0.562c-0.42,0.233-0.835,0.466-1.266,0.7c-0.075,0.041-0.154,0.082-0.229,0.122
	c-1.088,0.588-2.215,1.176-3.371,1.766c-0.311,0.159-0.616,0.317-0.933,0.475c-0.443,0.223-0.899,0.445-1.351,0.668
	c-0.416,0.204-0.831,0.409-1.256,0.613c-0.406,0.196-0.818,0.391-1.231,0.587c-0.528,0.25-1.062,0.5-1.604,0.75
	c-0.335,0.155-0.671,0.31-1.011,0.465c-0.739,0.337-1.491,0.674-2.255,1.011c-0.166,0.074-0.329,0.147-0.497,0.221
	c-3.071,1.346-6.338,2.696-9.816,4.045c-0.001,0-0.001,0.001-0.002,0.001c-4.496,1.744-9.297,3.47-14.431,5.166
	c-13.896,4.589-28.874,8.565-44.639,11.9c-0.25,0.027-0.5,0.064-0.751,0.117c-14.958,3.13-30.702,5.703-46.793,7.649
	c-0.203,0.025-0.402,0.067-0.602,0.107c-24.224,2.889-49.495,4.397-75.019,4.397s-50.796-1.508-75.02-4.396
	c-0.199-0.041-0.397-0.083-0.6-0.107c-16.098-1.947-31.841-4.52-46.793-7.649c-0.251-0.053-0.501-0.09-0.751-0.117
	c-15.765-3.335-30.743-7.311-44.639-11.9c-5.134-1.695-9.936-3.422-14.431-5.166c-0.001,0-0.002-0.001-0.002-0.001
	c-3.477-1.348-6.744-2.698-9.814-4.044c-0.169-0.074-0.334-0.149-0.502-0.223c-0.763-0.337-1.513-0.673-2.251-1.009
	c-0.34-0.155-0.676-0.31-1.011-0.465c-0.542-0.25-1.076-0.501-1.604-0.75c-0.413-0.196-0.825-0.391-1.231-0.587
	c-0.425-0.205-0.84-0.409-1.256-0.613c-0.453-0.223-0.908-0.445-1.351-0.668c-0.316-0.159-0.622-0.317-0.933-0.475
	c-1.144-0.583-2.26-1.166-3.338-1.748c-0.087-0.047-0.178-0.094-0.264-0.141c-0.429-0.232-0.842-0.464-1.26-0.697
	c-0.339-0.188-0.682-0.377-1.013-0.565c-0.344-0.195-0.679-0.389-1.015-0.583c-0.417-0.241-0.831-0.481-1.236-0.721
	c-0.247-0.146-0.49-0.292-0.732-0.437c-0.532-0.32-1.055-0.639-1.565-0.957c-0.109-0.068-0.218-0.135-0.326-0.203
	c-8.793-5.523-14.347-10.706-17.356-15.129h460.59V36.297z M22.871,55.361c2.314,2.003,4.969,4.043,7.978,6.109
	c7.981,5.522,18.618,11.266,32.739,17.002c-0.011,47.187-13.773,99.697-25.55,135.99c-1.28,3.946,0.88,8.183,4.827,9.463
	c3.94,1.278,8.181-0.881,9.463-4.826c11.656-35.921,25.19-87.393,26.213-135.029c1.615,0.559,3.257,1.118,4.945,1.675
	c12.247,4.044,25.292,7.63,38.954,10.734c-15.875,49.256-41.758,89.864-61.157,115.738c-2.488,3.319-1.815,8.027,1.504,10.515
	c1.351,1.013,2.932,1.502,4.5,1.502c2.284,0,4.54-1.038,6.016-3.006c20.292-27.065,47.451-69.724,63.92-121.627
	c10.345,2.026,20.99,3.785,31.861,5.27c-15.911,38.982-47.741,79.134-72.526,106.783c-2.769,3.089-2.51,7.838,0.58,10.607
	c3.09,2.77,7.838,2.509,10.607-0.579c46.213-51.553,67.202-90.191,76.735-114.913c23.207,2.566,47.263,3.902,71.519,3.902
	c24.258,0,48.315-1.336,71.523-3.902c16.241,42.241,50.401,85.548,76.796,114.987c2.768,3.088,7.517,3.347,10.607,0.578
	c3.089-2.769,3.348-7.518,0.578-10.607c-24.808-27.668-56.669-67.852-72.589-106.855c10.872-1.484,21.516-3.243,31.861-5.27
	c16.489,51.965,43.693,94.667,64.02,121.759c1.476,1.967,3.73,3.004,6.014,3.004c1.569,0,3.151-0.49,4.502-1.504
	c3.318-2.49,3.99-7.198,1.5-10.516c-19.433-25.9-45.359-66.551-61.253-115.867c13.661-3.104,26.707-6.69,38.954-10.734
	c1.688-0.557,3.33-1.116,4.945-1.675c1.023,47.611,14.543,99.05,26.187,134.947c1.28,3.947,5.517,6.105,9.463,4.828
	c3.945-1.28,6.107-5.517,4.827-9.463c-11.765-36.27-25.512-88.746-25.523-135.91c14.121-5.736,24.758-11.48,32.739-17.002
	c3.009-2.066,5.665-4.105,7.978-6.109v188.993h-41.666c-8.107,0-14.703,6.596-14.703,14.703v15.417
	c0,3.995,1.607,7.618,4.202,10.271c-4.548,13.824-9.97,31.176-15.167,49.972H90.207c-5.198-18.796-10.621-36.151-15.168-49.972
	c2.595-2.653,4.202-6.276,4.202-10.271v-15.417c0-8.107-6.596-14.703-14.703-14.703H22.871V55.361z M15.023,274.154v-14.777h49.195
	v14.777H35.669H15.36H15.023z M53.671,473.255c-0.831,1.509-2.435,2.446-4.187,2.446H22.871V289.177h7.196
	C57.425,381.8,66.255,450.404,53.671,473.255z M161.889,475.701H90.5v-41.459c0-8.927,7.263-16.19,16.19-16.19h39.01
	c8.927,0,16.189,7.263,16.189,16.19L161.889,475.701L161.889,475.701z M248.302,475.701h-71.39v-41.459
	c0-8.927,7.263-16.19,16.19-16.19h39.009c8.928,0,16.19,7.263,16.19,16.19L248.302,475.701L248.302,475.701z M334.714,475.701
	h-71.389v-41.459c0-8.927,7.263-16.19,16.189-16.19h39.009c8.928,0,16.19,7.263,16.19,16.19v41.459H334.714z M421.125,475.701
	h-71.389v-41.459c0-8.927,7.263-16.19,16.19-16.19h39.009c8.927,0,16.19,7.263,16.19,16.19V475.701z M436.148,475.701v-41.459
	c0-17.211-14.002-31.213-31.212-31.213h-39.009c-9.476,0-17.972,4.25-23.702,10.938c-5.729-6.688-14.226-10.938-23.702-10.938
	h-39.009c-9.475,0-17.972,4.25-23.701,10.937c-5.729-6.687-14.226-10.937-23.702-10.937h-39.009c-9.475,0-17.972,4.25-23.702,10.937
	c-5.729-6.687-14.226-10.937-23.701-10.937H106.69c-17.211,0-31.213,14.002-31.213,31.213v41.459H69.06
	c15.224-38.477-6.53-128.824-23.338-186.524h14.961c7.097,21.554,16.385,51.904,23.501,82.723c0.933,4.042,4.966,6.562,9.009,5.629
	c4.042-0.933,6.562-4.966,5.629-9.009c-1.456-6.305-3-12.587-4.597-18.78h323.552c-1.613,6.253-3.172,12.598-4.64,18.966
	c-0.932,4.042,1.589,8.075,5.632,9.007c0.568,0.131,1.135,0.194,1.695,0.194c3.419,0,6.511-2.35,7.313-5.825
	c7.123-30.887,16.43-61.306,23.542-82.906h14.961c-16.808,57.7-38.562,148.047-23.338,186.524h-6.794V475.701z M489.129,475.701
	h-26.612c-1.752,0-3.356-0.937-4.187-2.446c-12.584-22.85-3.754-91.455,23.603-184.078h7.196V475.701z M496.977,274.154h-0.337
	h-20.309h-28.549v-14.777h49.195V274.154z"/>
<g>
</g>
<g>
</g>
<g>
</g>
<g>
</g>
<g>
</g>
<g>
</g>
<g>
</g>
<g>
</g>
<g>
</g>
<g>
</g>
<g>
</g>
<g>
</g>
<g>
</g>
<g>
</g>
<g>
</g>
</svg>
