<?xml version="1.0" encoding="iso-8859-1"?>
<!-- Generator: Adobe Illustrator 19.0.0, SVG Export Plug-In . SVG Version: 6.00 Build 0)  -->
<svg version="1.1" id="Capa_1" xmlns="http://www.w3.org/2000/svg" xmlns:xlink="http://www.w3.org/1999/xlink" x="0px" y="0px"
	 viewBox="0 0 512 512" style="enable-background:new 0 0 512 512;" xml:space="preserve">
<path style="fill:#2196F3;" d="M418.88,344.021l-54.869-19.093c-4.015-1.393-8.473-0.27-11.349,2.859
	c-24.328,28.17-59.449,44.719-96.661,45.547c-37.201-0.828-72.313-17.368-96.64-45.525c-2.876-3.129-7.335-4.252-11.349-2.859
	l-54.869,19.093C37.383,363.423,0.006,415.978,0,475.008v15.659c0,5.891,4.776,10.667,10.667,10.667h490.667
	c5.891,0,10.667-4.776,10.667-10.667v-15.659C512.006,415.976,474.637,363.411,418.88,344.021z"/>
<path style="fill:#FFE082;" d="M384,141.44c0-0.917,0-1.835,0-2.773c0-70.692-57.308-128-128-128s-128,57.308-128,128
	c0,0.917,0,1.856,0,2.773c-15.303,12.086-23.353,31.165-21.333,50.56c0,29.675,13.099,52.224,30.699,53.333
	C156.715,309.589,203.499,352,256,352s99.264-42.453,118.635-106.667c17.6-1.109,30.699-23.659,30.699-53.333
	C407.353,172.605,399.303,153.526,384,141.44z"/>
<g>
	<path style="fill:#F44336;" d="M245.333,223.808c-5.202,0.061-9.657-3.712-10.453-8.853c-0.421-18.167,9.884-34.882,26.304-42.667
		c11.925-6.689,18.382-20.132,16.149-33.621c1.027-10.755-6.86-20.307-17.615-21.333c-1.237-0.118-2.482-0.118-3.718,0
		c-10.755-1.027-20.307,6.86-21.333,17.615c-0.118,1.237-0.118,2.482,0,3.718c0,5.891-4.776,10.667-10.667,10.667
		c-5.891,0-10.667-4.776-10.667-10.667c-1.049-22.515,16.351-41.617,38.866-42.667c1.266-0.059,2.534-0.059,3.801,0
		c22.515-1.049,41.617,16.351,42.667,38.866c0.059,1.266,0.059,2.534,0,3.801c2.241,20.974-8.13,41.289-26.432,51.776
		c-17.067,10.389-16.363,21.163-16.32,21.611c0.507,5.763-3.61,10.904-9.344,11.669C246.16,223.774,245.747,223.803,245.333,223.808
		z"/>
	<circle style="fill:#F44336;" cx="245.333" cy="256" r="10.667"/>
</g>
<path d="M501.333,501.333H10.667C4.776,501.333,0,496.558,0,490.667v-15.659c0.003-59.025,37.37-111.578,93.12-130.965
	l54.869-19.093c4.015-1.393,8.473-0.27,11.349,2.859c24.332,28.162,59.453,44.703,96.661,45.525
	c37.201-0.828,72.313-17.368,96.64-45.525c2.876-3.129,7.335-4.252,11.349-2.859l54.869,19.093
	c55.758,19.38,93.135,71.935,93.141,130.965v15.659C512,496.558,507.224,501.333,501.333,501.333z M21.333,480h469.333v-4.992
	c0.003-49.945-31.612-94.417-78.784-110.827l-48.405-16.832c-27.987,29.61-66.739,46.671-107.477,47.317
	c-40.738-0.646-79.491-17.707-107.477-47.317l-48.405,16.832c-47.172,16.409-78.787,60.882-78.784,110.827V480z"/>
<path d="M256,352c-52.587,0-99.264-42.453-118.635-106.667c-17.6-1.109-30.699-23.659-30.699-53.333
	c-2.019-19.395,6.031-38.474,21.333-50.56c0-0.917,0-1.835,0-2.773c0-70.692,57.308-128,128-128s128,57.308,128,128
	c0,0.917,0,1.856,0,2.773c15.303,12.086,23.353,31.165,21.333,50.56c0,29.675-13.099,52.224-30.699,53.333
	C355.264,309.547,308.587,352,256,352z M144.875,222.251c1.285-0.011,2.561,0.228,3.755,0.704c3.231,1.144,5.715,3.771,6.677,7.061
	C170.219,290.133,210.688,330.667,256,330.667s85.781-40.533,100.715-100.651c0.833-3.326,3.215-6.049,6.4-7.317
	c3.146-1.311,6.732-1.017,9.621,0.789C376.171,223.829,384,212.693,384,192c1.452-11.649-2.284-23.348-10.219-32h-0.32
	c-3.159,0.261-6.275-0.868-8.533-3.093c-2.235-2.25-3.353-5.377-3.051-8.533l0.299-2.667c0.299-2.335,0.462-4.686,0.491-7.04
	C362.667,79.756,314.91,32,256,32S149.333,79.756,149.333,138.667c0.048,2.37,0.233,4.734,0.555,7.083l0.299,2.667
	c0.302,3.156-0.816,6.284-3.051,8.533c-2.267,2.21-5.376,3.337-8.533,3.093h-0.32C130.34,168.675,126.581,180.356,128,192
	c0,20.651,8.021,32,10.667,32C140.538,222.863,142.685,222.258,144.875,222.251z"/>
<path d="M245.333,223.808c-5.202,0.061-9.657-3.712-10.453-8.853c-0.421-18.167,9.884-34.882,26.304-42.667
	c11.925-6.689,18.382-20.132,16.149-33.621c1.027-10.755-6.86-20.307-17.615-21.333c-1.237-0.118-2.482-0.118-3.718,0
	c-10.755-1.027-20.307,6.86-21.333,17.615c-0.118,1.237-0.118,2.482,0,3.718c0,5.891-4.776,10.667-10.667,10.667
	c-5.891,0-10.667-4.776-10.667-10.667c-1.049-22.515,16.351-41.617,38.866-42.667c1.266-0.059,2.534-0.059,3.801,0
	c22.515-1.049,41.617,16.351,42.667,38.866c0.059,1.266,0.059,2.534,0,3.801c2.241,20.974-8.13,41.289-26.432,51.776
	c-17.067,10.389-16.363,21.163-16.32,21.611c0.507,5.763-3.61,10.904-9.344,11.669C246.16,223.774,245.747,223.803,245.333,223.808z
	"/>
<circle cx="245.333" cy="256" r="10.667"/>
<g>
</g>
<g>
</g>
<g>
</g>
<g>
</g>
<g>
</g>
<g>
</g>
<g>
</g>
<g>
</g>
<g>
</g>
<g>
</g>
<g>
</g>
<g>
</g>
<g>
</g>
<g>
</g>
<g>
</g>
</svg>
